<svg width="1416" height="466" viewBox="0 0 1416 466" fill="none" xmlns="http://www.w3.org/2000/svg">
<rect x="111" y="2" width="244" height="111" fill="white"/>
<path d="M1063 0H1307V111H1063V0Z" fill="white"/>
<path d="M1063 234H1307V345H1063V234Z" fill="white"/>
<rect x="732.392" y="198" width="244" height="111" transform="rotate(67.2868 732.392 198)" fill="white"/>
<rect x="697.595" y="240.854" width="244" height="111" transform="rotate(112.71 697.595 240.854)" fill="white"/>
<rect x="488" y="466" width="464" height="111" transform="rotate(-90 488 466)" fill="white"/>
<rect x="732" y="466" width="464" height="111" transform="rotate(-90 732 466)" fill="white"/>
<rect x="1305" y="466" width="353" height="111" transform="rotate(-90 1305 466)" fill="white"/>
<rect x="952" y="466" width="353" height="111" transform="rotate(-90 952 466)" fill="white"/>
<rect x="111" y="355" width="244" height="111" fill="white"/>
<rect y="355" width="244" height="111" transform="rotate(-90 0 355)" fill="white"/>
</svg>
